<?xml version="1.0" encoding="UTF-8"?>
<svg width="96px" height="96px" viewBox="0 0 96 96" version="1.1" xmlns="http://www.w3.org/2000/svg" xmlns:xlink="http://www.w3.org/1999/xlink">
    <title>icon / custom / android_logo</title>
    <g id="icon-/-custom-/-android_logo" stroke="none" stroke-width="1" fill="none" fill-rule="evenodd">
        <path d="M10.7195873,82.8879004 C8.42247599,82.8879004 6.87675622,84.6912401 6.87675622,87.0098197 C6.87675622,89.3283994 8.42247599,91.1317391 10.7195873,91.1317391 C13.0166986,91.1317391 14.5624184,89.3283994 14.5624184,87.0098197 C14.54095,84.6912401 12.9952303,82.8879004 10.7195873,82.8879004 M10.2043474,80.3331691 C12.0506238,80.3331691 13.5963435,81.2777756 14.3262667,82.3082554 L14.3262667,80.590789 L17.1600863,80.590789 L17.1600863,93.4503187 L14.9703166,93.4503187 C14.6150581,93.4492577 14.3273278,93.1615274 14.3262667,92.8062688 L14.3262667,91.7328523 C13.5963435,92.7633322 12.0720921,93.7079387 10.2043474,93.7079387 C6.68354125,93.7079387 4,90.7023725 4,87.0312881 C4,83.3602036 6.66207292,80.3331691 10.2043474,80.3331691 M20.3803358,80.590789 L23.2141554,80.590789 L23.2141554,82.3297238 C23.9870153,81.041624 25.4468617,80.3331691 27.1213914,80.3331691 C30.1054893,80.3331691 32.037639,82.4370654 32.037639,85.7002516 L32.037639,93.4503187 L29.8693377,93.4503187 C29.5140792,93.4492577 29.2263488,93.1615274 29.2252878,92.8062688 L29.2252878,86.1725549 C29.2252878,84.1330635 28.1948079,82.9093687 26.5417465,82.9093687 C24.6740018,82.9093687 23.2141554,84.3692151 23.2141554,87.1171614 L23.2141554,93.4503187 L21.045854,93.4503187 C20.6905955,93.4492577 20.4028652,93.1615274 20.4018041,92.8062688 L20.3803358,80.590789 Z M40.9684643,82.8879004 C38.671353,82.8879004 37.1256332,84.6912401 37.1256332,87.0098197 C37.1256332,89.3283994 38.671353,91.1317391 40.9684643,91.1317391 C43.2655756,91.1317391 44.8112954,89.3283994 44.8112954,87.0098197 C44.8112954,84.6912401 43.2655756,82.8879004 40.9684643,82.8879004 M40.4532244,80.3331691 C42.2995008,80.3331691 43.8452205,81.2777756 44.5751438,82.3082554 L44.5751438,74.15029 L47.4089633,74.15029 L47.4089633,93.4503187 L45.240662,93.4503187 C44.8854035,93.4492577 44.5976731,93.1615274 44.5966121,92.8062688 L44.5966121,91.7328523 C43.8666889,92.7633322 42.3424374,93.7079387 40.4746927,93.7079387 C36.9538866,93.7079387 34.2703453,90.7023725 34.2703453,87.0312881 C34.2703453,83.3602036 36.9324183,80.3331691 40.4532244,80.3331691 M50.6292128,80.590789 L53.4630324,80.590789 L53.4630324,82.8879004 C53.972836,81.4477588 55.32741,80.4789812 56.8550285,80.4619791 C57.2229206,80.4551105 57.59036,80.4911339 57.9499134,80.5693207 L57.9499134,83.4675453 C57.4930504,83.3144731 57.0148162,83.2347674 56.5330036,83.2313936 C54.9228788,83.2313936 53.4415641,84.6053668 53.4415641,87.160098 L53.4415641,93.4288504 L51.2732627,93.4288504 C50.9180042,93.4277894 50.6302738,93.140059 50.6292128,92.7848005 L50.6292128,80.590789 Z M65.5711705,91.0673341 C67.8253452,91.0673341 69.4354699,89.2854627 69.4354699,87.0098197 C69.4354699,84.7127084 67.8468135,82.9523054 65.5711705,82.9523054 C63.2740592,82.9523054 61.6854028,84.7341767 61.6854028,87.0098197 C61.7068711,89.306931 63.2740592,91.0673341 65.5711705,91.0673341 M65.5711705,93.7079387 C61.8833903,93.6784554 58.9155219,90.6691658 58.9370333,86.9813312 C58.9587797,83.2934966 61.9617414,80.3192256 65.6496138,80.3329524 C69.3374861,80.3467745 72.3181461,83.3433948 72.3123099,87.0312881 C72.3211824,88.8159847 71.6117473,90.5292417 70.3437174,91.7851567 C69.0756875,93.0410716 67.3556989,93.7340272 65.5711705,93.7079387 M74.6093375,80.590789 L77.443157,80.590789 L77.443157,93.4503187 L75.2748557,93.4503187 C74.9195972,93.4492577 74.6318668,93.1615274 74.6308058,92.8062688 L74.6093375,80.590789 Z M76.0262473,77.7784378 C74.9751341,77.7685402 74.1254635,76.9188696 74.1155659,75.8677564 C74.1366364,74.8283369 74.9866173,73.9974567 76.0262473,74.0000059 C77.0696308,74.0000059 77.9154603,74.8458412 77.9154603,75.8892248 C77.9154603,76.9326083 77.0696308,77.7784378 76.0262473,77.7784378 M86.481324,82.8879004 C84.1842127,82.8879004 82.6384929,84.6912401 82.6384929,87.0098197 C82.6384929,89.3283994 84.1842127,91.1317391 86.481324,91.1317391 C88.7784353,91.1317391 90.3241551,89.3283994 90.3241551,87.0098197 C90.2812184,84.6912401 88.7784353,82.8879004 86.481324,82.8879004 M85.9660841,80.3331691 C87.8123604,80.3331691 89.3580802,81.2777756 90.0880034,82.3082554 L90.0880034,74.15029 L92.921823,74.15029 L92.921823,93.4503187 L90.7535217,93.4503187 C90.3982631,93.4492577 90.1105328,93.1615274 90.1094718,92.8062688 L90.1094718,91.7328523 C89.3795485,92.7633322 87.8552971,93.7079387 85.9875524,93.7079387 C82.4667463,93.7079387 79.783205,90.7023725 79.783205,87.0312881 C79.783205,83.3602036 82.4452779,80.3331691 85.9660841,80.3331691" id="Shape" fill="#000000" fill-rule="nonzero"></path>
        <path d="M70.2512665,30.1114522 L77.6578403,17.2948591 C78.0711299,16.5610138 77.8179048,15.6312717 77.0895608,15.2083623 C76.3612169,14.7854529 75.4282234,15.026423 74.9957674,15.7491394 L67.5033202,28.7160107 C55.4058429,23.27737 41.5589167,23.27737 29.4614394,28.7160107 L21.9689922,15.7491394 C21.5365362,15.026423 20.6035428,14.7854529 19.8751988,15.2083623 C19.1468549,15.6312717 18.8936298,16.5610138 19.3069193,17.2948591 L26.7134932,30.1114522 C13.9398368,37.0242544 5.26663147,49.8837841 4,65.0618935 L92.8788863,65.0618935 C91.6122549,49.8837841 82.9175812,37.0242544 70.2512665,30.1114522 L70.2512665,30.1114522 Z M28.001593,52.3955787 C25.9622524,52.3955787 24.3090402,50.7423666 24.3090402,48.703026 C24.3090402,46.6636854 25.9622524,45.0104732 28.001593,45.0104732 C30.0409336,45.0104732 31.6941457,46.6636854 31.6941457,48.703026 C31.6941457,50.7423666 30.0409336,52.3955787 28.001593,52.3955787 L28.001593,52.3955787 Z M68.92023,52.3955787 C66.8808894,52.3955787 65.2276772,50.7423666 65.2276772,48.703026 C65.2276772,46.6636854 66.8808894,45.0104732 68.92023,45.0104732 C70.9595706,45.0104732 72.6127828,46.6636854 72.6127828,48.703026 C72.6127828,50.7423666 70.9595706,52.3955787 68.92023,52.3955787 Z" id="Shape" fill="#3DDC84" fill-rule="nonzero"></path>
    </g>
</svg>