<?xml version="1.0" encoding="UTF-8"?>
<svg width="96px" height="96px" viewBox="0 0 96 96" version="1.1" xmlns="http://www.w3.org/2000/svg" xmlns:xlink="http://www.w3.org/1999/xlink">
    <title>icon / custom / apple_logo</title>
    <g id="icon-/-custom-/-apple_logo" stroke="none" stroke-width="1" fill="none" fill-rule="evenodd">
        <g id="Group" transform="translate(12.000000, 4.000000)" fill="#000000" fill-rule="nonzero">
            <path d="M59.8303316,46.7416022 C59.9539688,60.0560834 71.5105086,64.4867554 71.6385446,64.543154 C71.5408288,64.8554674 69.7919992,70.8571326 65.5500035,77.0564287 C61.8828342,82.416186 58.0771033,87.7559917 52.0817221,87.8665897 C46.1906549,87.9751453 44.2963513,84.3733293 37.5611895,84.3733293 C30.8280699,84.3733293 28.7234104,87.7561488 23.146856,87.9753024 C17.3597885,88.1944559 12.9528385,82.1797515 9.25550616,76.8396316 C1.70012879,65.9165162 -4.07374235,45.9735436 3.67910887,32.5117033 C7.53055568,25.826499 14.4133909,21.5931438 21.8840917,21.4845882 C27.5668453,21.3761896 32.9305301,25.3077571 36.4046243,25.3077571 C39.8765192,25.3077571 46.3945698,20.5796961 53.2469277,21.2740751 C56.1155612,21.3934706 64.1680008,22.4328396 69.3384535,30.0012562 C68.9218261,30.2595275 59.7304165,35.6103302 59.8303316,46.7416022 M48.7587574,14.0475066 C51.8311487,10.3284945 53.899047,5.15128655 53.3349034,0 C48.9062737,0.177993524 43.5510722,2.95111064 40.374524,6.66808044 C37.5277273,9.95962529 35.0345612,15.2279508 35.7072605,20.2772799 C40.6434781,20.6591884 45.686209,17.7688752 48.7587574,14.0475066" id="Shape"></path>
        </g>
    </g>
</svg>