<?xml version="1.0" encoding="UTF-8"?>
<svg width="96px" height="96px" viewBox="0 0 96 96" version="1.1" xmlns="http://www.w3.org/2000/svg" xmlns:xlink="http://www.w3.org/1999/xlink">
    <title>icon / custom / outlook_logo</title>
    <g id="icon-/-custom-/-outlook_logo" stroke="none" stroke-width="1" fill="none" fill-rule="evenodd">
        <g id="Group" transform="translate(2.000000, 8.000000)">
            <path d="M82.5579296,1.79412041e-13 L32.9238575,1.79412041e-13 C30.6852206,1.79412041e-13 28.8704468,1.8147738 28.8704468,4.05341073 L28.8704468,8.66113403 L56.8459097,17.3222681 L86.6113403,8.66113403 L86.6113403,4.05341073 C86.6113403,1.8147738 84.7965665,1.79412041e-13 82.5579296,1.79412041e-13 Z" id="Path" fill="#0364B8" fill-rule="nonzero"></path>
            <path d="M91.374964,44.4749232 C91.7978434,43.1457277 92.1353529,41.7908679 92.3854296,40.4186255 C92.3846331,39.7324826 92.0182615,39.0987589 91.4240438,38.7556877 L91.3865122,38.7325914 L91.374964,38.7268173 L60.0851738,20.9022035 C59.9501966,20.8146082 59.8104391,20.7346091 59.6665523,20.6625787 C58.4534148,20.0603189 57.0283723,20.0603189 55.8152347,20.6625787 C55.6713888,20.7336232 55.5316299,20.8126593 55.3966132,20.8993164 L24.106823,38.7297043 L24.0952749,38.7354784 L24.0606303,38.7556877 C23.4653012,39.0980251 23.0977493,39.731887 23.0963574,40.4186255 C23.3464572,41.7908629 23.6839664,43.1457213 24.106823,44.4749232 L57.2847405,68.7405337 L91.374964,44.4749232 Z" id="Path" fill="#0A2767" fill-rule="nonzero"></path>
            <polygon id="Path" fill="#28A8EA" fill-rule="nonzero" points="69.2890722 8.66113403 49.0797595 8.66113403 43.2450422 17.3222681 49.0797595 25.9834021 69.2890722 43.3056701 86.6113403 43.3056701 86.6113403 25.9834021"></polygon>
            <polygon id="Path" fill="#0078D4" fill-rule="nonzero" points="28.8704468 8.66113403 49.0797595 8.66113403 49.0797595 25.9834021 28.8704468 25.9834021"></polygon>
            <polygon id="Path" fill="#50D9FF" fill-rule="nonzero" points="69.2890722 8.66113403 86.6113403 8.66113403 86.6113403 25.9834021 69.2890722 25.9834021"></polygon>
            <polygon id="Path" fill="#0364B8" fill-rule="nonzero" points="69.2890722 43.3056701 49.0797595 25.9834021 28.8704468 25.9834021 28.8704468 43.3056701 49.0797595 60.6279382 80.3522274 65.7322332"></polygon>
            <line x1="28.9599451" y1="8.66113403" x2="86.6113403" y2="8.66113403" id="Path"></line>
            <polygon id="Path" fill="#0078D4" fill-rule="nonzero" points="49.0797595 25.9834021 69.2890722 25.9834021 69.2890722 43.3056701 49.0797595 43.3056701"></polygon>
            <polygon id="Path" fill="#064A8C" fill-rule="nonzero" points="28.8704468 43.3056701 49.0797595 43.3056701 49.0797595 60.6279382 28.8704468 60.6279382"></polygon>
            <polygon id="Path" fill="#0078D4" fill-rule="nonzero" points="69.2890722 43.3056701 86.6113403 43.3056701 86.6113403 60.6279382 69.2890722 60.6279382"></polygon>
            <path d="M58.289432,67.0314033 L24.2425141,42.2028191 L25.6716013,39.6910902 C25.6716013,39.6910902 56.6928963,57.3598036 57.1663716,57.6254117 C57.557946,57.7821075 57.9969416,57.7695647 58.3789304,57.5907672 L89.9429898,39.6044789 L91.374964,42.1133207 L58.289432,67.0314033 Z" id="Path" fill="#0A2767" fill-rule="nonzero" opacity="0.5"></path>
            <path d="M91.4240438,42.0844502 L91.3836251,42.1075466 L91.374964,42.1133207 L60.0851738,59.9379345 C58.8215038,60.7527637 57.2251597,60.8522618 55.8700886,60.2006556 L66.7657952,74.8119887 L90.5954619,80.000008 L90.5954619,80.0115562 C91.7199106,79.1981357 92.3854297,77.8945014 92.3854297,76.5066839 L92.3854297,40.4186255 C92.3854297,41.1057999 92.0191543,41.7408631 91.4240438,42.0844502 L91.4240438,42.0844502 Z" id="Path" fill="#1490DF" fill-rule="nonzero"></path>
            <path d="M92.3854297,76.5066839 L92.3854297,74.3760449 L63.5640626,57.9545348 L60.0851738,59.9379345 C58.8215038,60.7527637 57.2251597,60.8522618 55.8700886,60.2006556 L66.7657952,74.8119887 L90.5954619,80.000008 L90.5954619,80.0115562 C91.7199106,79.1981357 92.3854297,77.8945014 92.3854297,76.5066839 L92.3854297,76.5066839 Z" id="Path" fill="#000000" fill-rule="nonzero" opacity="0.05"></path>
            <path d="M92.2410774,77.612422 L60.6481475,59.6174726 L60.0851738,59.9350475 C58.8220177,60.7508088 57.2256547,60.8514015 55.8700886,60.2006556 L66.7657952,74.8119887 L90.5954619,80.000008 L90.5954619,80.0115562 C91.403532,79.4260991 91.9847922,78.5797027 92.2410774,77.6153091 L92.2410774,77.612422 Z" id="Path" fill="#000000" fill-rule="nonzero" opacity="0.1"></path>
            <path d="M24.106823,42.1219818 L24.106823,42.0931114 L24.0779526,42.0931114 L23.9913413,42.0353705 C23.4299546,41.6908668 23.09028,41.0772611 23.0962772,40.4186255 L23.0962772,76.5066839 C23.0948223,77.6556916 23.5505842,78.7580804 24.3630561,79.5705523 C25.1755279,80.3830241 26.2779167,80.838786 27.4269244,80.8372548 L88.0548626,80.8372548 C88.4155472,80.8337183 88.774384,80.7852269 89.1230692,80.6928987 C89.3039681,80.6614243 89.4791334,80.6030358 89.6427372,80.519676 C89.7040846,80.5136959 89.7632939,80.4939595 89.8159599,80.4619351 C90.0522462,80.365342 90.2753587,80.2392349 90.4799802,80.0866193 C90.537721,80.0577489 90.5665915,80.0577489 90.5954619,80.000008 L24.106823,42.1219818 Z" id="Path" fill="#28A8EA" fill-rule="nonzero"></path>
            <path d="M51.9668042,65.4406417 L51.9668042,18.2836539 C51.9604627,16.1608567 50.2411708,14.4415649 48.1183736,14.4352234 L28.9570581,14.4352234 L28.9570581,35.9610285 L24.106823,38.7268173 L24.0923878,38.7325914 L24.0577433,38.7528007 C23.4626327,39.0963879 23.0963573,39.7314511 23.0963573,40.4186255 L23.0963573,40.4330607 L23.0963573,40.4186255 L23.0963573,69.2890722 L48.1183736,69.2890722 C50.2411708,69.2827307 51.9604627,67.5634389 51.9668042,65.4406417 L51.9668042,65.4406417 Z" id="Path" fill="#000000" fill-rule="nonzero" opacity="0.1"></path>
            <path d="M49.0797595,68.3276864 L49.0797595,21.1706986 C49.073418,19.0479014 47.3541262,17.3286095 45.2313289,17.3222681 L28.9570581,17.3222681 L28.9570581,35.9610285 L24.106823,38.7268173 L24.0923878,38.7325914 L24.0577433,38.7528007 C23.4626327,39.0963879 23.0963573,39.7314511 23.0963573,40.4186255 L23.0963573,40.4330607 L23.0963573,40.4186255 L23.0963573,72.1761169 L45.2313289,72.1761169 C47.3541262,72.1697754 49.073418,70.4504836 49.0797595,68.3276864 Z" id="Path" fill="#000000" fill-rule="nonzero" opacity="0.2"></path>
            <path d="M49.0797595,62.553597 L49.0797595,21.1706986 C49.073418,19.0479014 47.3541262,17.3286095 45.2313289,17.3222681 L28.9570581,17.3222681 L28.9570581,35.9610285 L24.106823,38.7268173 L24.0923878,38.7325914 L24.0577433,38.7528007 C23.4626327,39.0963879 23.0963573,39.7314511 23.0963573,40.4186255 L23.0963573,40.4330607 L23.0963573,40.4186255 L23.0963573,66.4020276 L45.2313289,66.4020276 C47.3541262,66.3956861 49.073418,64.6763942 49.0797595,62.553597 L49.0797595,62.553597 Z" id="Path" fill="#000000" fill-rule="nonzero" opacity="0.2"></path>
            <path d="M46.1927148,62.553597 L46.1927148,21.1706986 C46.1863733,19.0479014 44.4670815,17.3286095 42.3442843,17.3222681 L28.9570581,17.3222681 L28.9570581,35.9610285 L24.106823,38.7268173 L24.0923878,38.7325914 L24.0577433,38.7528007 C23.4626327,39.0963879 23.0961231,39.7314511 23.0963573,40.4186255 L23.0963573,40.4330607 L23.0963573,40.4186255 L23.0963573,66.4020276 L42.3442843,66.4020276 C44.4670815,66.3956861 46.1863733,64.6763942 46.1927148,62.553597 L46.1927148,62.553597 Z" id="Path" fill="#000000" fill-rule="nonzero" opacity="0.2"></path>
            <path d="M3.84843055,17.3222681 L42.3442843,17.3222681 C44.4697138,17.3222681 46.1927148,19.0452691 46.1927148,21.1706986 L46.1927148,59.6665523 C46.1927148,61.7919818 44.4697138,63.5149829 42.3442843,63.5149829 L3.84843055,63.5149829 C1.72300105,63.5149829 -1.0658141e-14,61.7919818 -1.0658141e-14,59.6665523 L-1.0658141e-14,21.1706986 C-1.0658141e-14,19.0452691 1.72300105,17.3222681 3.84843055,17.3222681 Z" id="Path" fill="#0078D4" fill-rule="nonzero"></path>
            <path d="M11.1642018,33.1086283 C12.1867902,30.9292694 13.8376735,29.1054555 15.9047291,27.8715293 C18.1947891,26.5605846 20.8022755,25.9072144 23.4399157,25.9834021 C25.8822122,25.9304221 28.2921023,26.549623 30.4063545,27.7733698 C32.396533,28.9588123 33.9993502,30.6970364 35.0198519,32.7766182 C36.1315756,35.0688468 36.6855607,37.5914575 36.6365969,40.1385821 C36.6900566,42.7990915 36.1195409,45.4351311 34.9707722,47.8354432 C33.9280683,49.9890413 32.2769272,51.7897386 30.2215837,53.0148014 C28.0244032,54.2775521 25.523026,54.9136309 22.9895368,54.8538488 C20.4936272,54.9132811 18.0292031,54.2871896 15.8643105,53.0436718 C13.8582304,51.8562966 12.2365309,50.1163272 11.1930722,48.0317623 C10.0737287,45.7733834 9.51237625,43.2794737 9.55611788,40.7592967 C9.50770738,38.1203775 10.0574822,35.5047523 11.1642018,33.1086283 L11.1642018,33.1086283 Z M16.2165299,45.4016646 C16.7612951,46.7793709 17.6852142,47.9745598 18.8812722,48.8487959 C20.1000563,49.701849 21.5600852,50.1419824 23.0472776,50.1046604 C24.6315673,50.1662719 26.1929675,49.7113279 27.4962135,48.8083773 C28.6789522,47.9346217 29.5793613,46.7330723 30.0858926,45.3525848 C30.6538477,43.8145407 30.9337457,42.1850644 30.9115873,40.5456554 C30.9291951,38.8907068 30.6656135,37.2447865 30.1320853,35.6780981 C29.6613107,34.2686759 28.79305,33.0254388 27.6319046,32.0981627 C26.3630277,31.1498101 24.8061674,30.6675607 23.2233874,30.7325906 C21.7038255,30.6941793 20.2111145,31.137849 18.9592224,32.0000032 C17.7396878,32.8757284 16.7944422,34.0803157 16.2338522,35.4731179 C14.9937442,38.6661639 14.9865401,42.2064851 16.2136429,45.4045516 L16.2165299,45.4016646 Z" id="Shape" fill="#FFFFFF" fill-rule="nonzero"></path>
        </g>
    </g>
</svg>