<?xml version="1.0" encoding="UTF-8"?>
<svg width="96px" height="96px" viewBox="0 0 96 96" version="1.1" xmlns="http://www.w3.org/2000/svg" xmlns:xlink="http://www.w3.org/1999/xlink">
    <title>icon / custom / thunderbird_logo</title>
    <defs>
        <linearGradient x1="82.409593%" y1="84.4280203%" x2="12.8097012%" y2="21.2577217%" id="linearGradient-1">
            <stop stop-color="#130036" offset="0%"></stop>
            <stop stop-color="#18023B" offset="22.97%"></stop>
            <stop stop-color="#26094A" offset="51.22%"></stop>
            <stop stop-color="#3D1563" offset="82.11%"></stop>
            <stop stop-color="#4E1D75" offset="100%"></stop>
        </linearGradient>
        <linearGradient x1="-0.000615617016%" y1="49.9997184%" x2="99.9997893%" y2="49.9997184%" id="linearGradient-2">
            <stop stop-color="#3156A8" offset="0%"></stop>
            <stop stop-color="#3351A4" offset="24.74%"></stop>
            <stop stop-color="#3B4397" offset="53.65%"></stop>
            <stop stop-color="#472C82" offset="84.53%"></stop>
            <stop stop-color="#4E1D75" offset="100%"></stop>
        </linearGradient>
        <radialGradient cx="50.0001621%" cy="49.9998763%" fx="50.0001621%" fy="49.9998763%" r="72.1535961%" gradientTransform="translate(0.500002,0.499999),scale(1.000000,0.562105),translate(-0.500002,-0.499999)" id="radialGradient-3">
            <stop stop-color="#14CDDA" offset="16.54%"></stop>
            <stop stop-color="#2061BD" offset="54.78%"></stop>
            <stop stop-color="#2658AC" offset="65.46%"></stop>
            <stop stop-color="#373F81" offset="86.4%"></stop>
            <stop stop-color="#432D62" offset="100%"></stop>
        </radialGradient>
        <linearGradient x1="-0.000149974149%" y1="49.999398%" x2="100%" y2="49.999398%" id="linearGradient-4">
            <stop stop-color="#2061BD" offset="0%"></stop>
            <stop stop-color="#2B51AC" offset="18.46%"></stop>
            <stop stop-color="#442C84" offset="68.26%"></stop>
            <stop stop-color="#4E1D75" offset="94.09%"></stop>
        </linearGradient>
        <linearGradient x1="14.5579936%" y1="36.2144675%" x2="82.2180114%" y2="77.5554941%" id="linearGradient-5">
            <stop stop-color="#48A8E0" offset="2.02%"></stop>
            <stop stop-color="#2061BD" offset="38.83%"></stop>
            <stop stop-color="#2B51AC" offset="49.68%"></stop>
            <stop stop-color="#442C84" offset="78.92%"></stop>
            <stop stop-color="#4E1D75" offset="94.09%"></stop>
        </linearGradient>
        <linearGradient x1="6.16188722%" y1="142.166394%" x2="61.4888601%" y2="11.2242367%" id="linearGradient-6">
            <stop stop-color="#3156A8" offset="37.87%"></stop>
            <stop stop-color="#4E1D75" offset="100%"></stop>
        </linearGradient>
        <linearGradient x1="18.5148291%" y1="137.859733%" x2="61.7047979%" y2="7.46748505%" id="linearGradient-7">
            <stop stop-color="#29ABE2" offset="0%"></stop>
            <stop stop-color="#385AA6" offset="77.33%"></stop>
            <stop stop-color="#414293" offset="85.75%"></stop>
            <stop stop-color="#4E1D75" offset="100%"></stop>
        </linearGradient>
        <linearGradient x1="30.7421685%" y1="39.7756968%" x2="52.5300843%" y2="55.0916388%" id="linearGradient-8">
            <stop stop-color="#B0DCD6" offset="0%"></stop>
            <stop stop-color="#53ACE0" offset="100%"></stop>
        </linearGradient>
        <linearGradient x1="90.6744833%" y1="54.2118941%" x2="10.456684%" y2="46.6849501%" id="linearGradient-9">
            <stop stop-color="#3092B9" offset="0%"></stop>
            <stop stop-color="#258DB6" offset="21.99%"></stop>
            <stop stop-color="#1685B1" offset="65.64%"></stop>
            <stop stop-color="#1082AF" offset="100%"></stop>
        </linearGradient>
        <linearGradient x1="43.0676636%" y1="13.5632464%" x2="60.2630546%" y2="86.4035159%" id="linearGradient-10">
            <stop stop-color="#1398D1" stop-opacity="0" offset="0.74%"></stop>
            <stop stop-color="#1187C2" stop-opacity="0.6197" offset="24.82%"></stop>
            <stop stop-color="#3F6499" stop-opacity="0.71" offset="64.22%"></stop>
            <stop stop-color="#2F4282" stop-opacity="0.5" offset="100%"></stop>
        </linearGradient>
        <linearGradient x1="72.075729%" y1="66.5672439%" x2="27.4128349%" y2="37.031331%" id="linearGradient-11">
            <stop stop-color="#F9C21B" offset="0%"></stop>
            <stop stop-color="#F3BA1B" offset="14.79%"></stop>
            <stop stop-color="#E3A41B" offset="37.87%"></stop>
            <stop stop-color="#C9801C" offset="66.34%"></stop>
            <stop stop-color="#A44E1C" offset="98.84%"></stop>
            <stop stop-color="#A34C1C" offset="100%"></stop>
        </linearGradient>
        <linearGradient x1="52.469176%" y1="80.8451314%" x2="34.3889894%" y2="13.3549552%" id="linearGradient-12">
            <stop stop-color="#409EC3" offset="0%"></stop>
            <stop stop-color="#2061BD" offset="62%"></stop>
        </linearGradient>
        <linearGradient x1="65.6641857%" y1="82.3105357%" x2="41.5167038%" y2="16.4351026%" id="linearGradient-13">
            <stop stop-color="#14B2DA" offset="0%"></stop>
            <stop stop-color="#297CCC" offset="40.28%"></stop>
            <stop stop-color="#256FC5" offset="50.77%"></stop>
            <stop stop-color="#2164BF" offset="64.92%"></stop>
            <stop stop-color="#2061BD" offset="81.62%"></stop>
            <stop stop-color="#2061BD" offset="98.35%"></stop>
        </linearGradient>
    </defs>
    <g id="icon-/-custom-/-thunderbird_logo" stroke="none" stroke-width="1" fill="none" fill-rule="evenodd">
        <g id="Group-2" transform="translate(2.000000, 2.000000)" fill-rule="nonzero">
            <g id="Group" transform="translate(0.000000, 0.000000)">
                <path d="M71.1193968,13.3633846 C65.6595061,9.79700405 58.6769757,8.64259919 54.8233117,8.23934818 C50.6989312,7.80823482 47.1167368,7.8842915 43.9660324,8.34665587 C43.699081,8.34326721 43.4336356,8.3327247 43.1651781,8.3327247 C42.9603522,8.3327247 42.7585385,8.34138462 42.552583,8.34364372 C42.6372996,8.24010121 42.6960364,8.17609312 42.6960364,8.17609312 C42.6960364,8.17609312 42.5303684,8.20207287 42.2050567,8.3492915 C41.1820567,8.3658583 40.1639514,8.40125101 39.1609069,8.46977733 C40.558166,6.93810121 41.7027814,6.13536437 41.7027814,6.13536437 C41.7027814,6.13536437 40.3443036,6.33416599 37.8653077,8.58122672 C36.6860526,8.68966397 35.5229879,8.83349393 34.379502,9.01234008 C36.9842551,5.48737652 39.7091174,4.0031417 39.7091174,4.0031417 C39.7091174,4.0031417 36.4062996,3.33068016 31.2348219,8.52738462 C30.8022024,8.96226316 30.400834,9.41446154 30.0126437,9.87230769 C14.9402429,13.5196397 4.15299595,23.2530121 4.15299595,34.6920121 C4.15299595,36.9353077 3.46434413,39.4026316 4.20683806,41.8661903 C3.9101417,45.8019352 4.54193927,56.5409879 4.54193927,56.5409879 C4.54193927,56.5409879 8.62226721,78.6234049 24.3129109,82.4632338 C24.562166,82.522251 21.0345668,76.9580648 19.4742753,70.2477571 C22.5124008,73.3382186 26.133,75.7821984 30.1967611,76.2057814 C30.6956478,76.2573644 27.8755263,72.952664 25.4055668,68.96383 L61.0610891,80.9770202 C79.7096599,72.9669717 77.5386559,73.6887571 81.5425506,69.3520202 C90.3636194,59.8035182 91.5985992,54.3854211 89.3763887,38.3890445 C87.8729514,27.5908785 79.9031903,16.8962551 71.1193968,13.3633846 Z" id="Path" fill="url(#linearGradient-1)"></path>
                <polygon id="Path" fill="#FBFBFB" points="8.54206883 23.4480486 3.2177247 53.7216194 6.17000405 62.868753 65.1041417 82.4631377 76.0337126 35.991753"></polygon>
                <path d="M8.70811336,24.4774494 C9.00368016,25.1133887 8.91670445,25.263996 8.73258704,25.263996 C8.64975304,25.263996 8.54734008,25.233498 8.45132794,25.2033765 C8.35531579,25.1728785 8.26532794,25.1427571 8.20734413,25.1427571 C8.04431174,25.1427571 8.13618219,25.3833522 9.05940486,26.5434049 C10.36517,28.2023441 29.5416194,57.1517004 30.5894696,57.1517004 C30.5951174,57.1517004 30.6000121,57.1509474 30.6045304,57.1494413 C39.5317773,53.9686154 77.4972389,40.9373198 77.4972389,40.9373198 L73.6130769,35.2786275 L8.70811336,24.4774494" id="Path" fill="#999999"></path>
                <path d="M9.26498381,23.7662065 C9.26498381,23.7662065 9.55113765,25.2466761 10.8768583,26.8852834 C12.1946721,28.5389514 29.8947935,55.3391417 30.783,55.1030648 C42.3778785,52.0246518 84.4462591,35.6468623 84.4462591,35.6468623 L9.26498381,23.7662065 Z" id="Path" fill="#F8F8F8"></path>
                <polygon id="Path" fill="#999999" points="62.9994049 81.7650729 6.99119028 63.1432348 7.18923887 64.4516356 63.6225425 83.2150445"></polygon>
                <path d="M21.7266073,22.5139069 C21.7266073,22.5139069 1.34868826,28.4817206 10.6991417,49.2591255 C10.6991417,49.2591255 6.41172874,45.3335466 3.85893522,40.3141822 C3.74409717,40.0894008 8.11396761,24.5648016 8.11396761,24.5648016 L21.7266073,22.5139069 Z" id="Path" fill="url(#linearGradient-2)"></path>
                <path d="M10.6991417,49.2591255 C8.92687045,49.2286275 6.07963968,47.7666073 5.15604049,45.9965951 C4.00163563,65.2359231 11.8512874,76.4716032 24.3132874,82.4635142 C20.2412429,81.9966316 0,71.3151862 0,45.611417 C0,23.755664 17.3424291,4.22001619 44.4826154,3.32503239 C44.6490364,4.55022267 31.0273603,7.62261134 30.5917287,9.06731174 C29.915502,11.3158785 28.3612348,13.7636235 27.0501984,15.7256599 C25.2737854,18.3842551 29.5190283,20.6576721 26.3991984,21.3738097 C21.7047692,22.4510283 15.4432713,21.8546235 10.8260283,27.8570769 C3.8852915,36.880336 8.51684211,47.2022065 10.6991417,49.2591255 Z" id="Path" fill="url(#radialGradient-3)"></path>
                <path d="M51.6010688,4.02836842 C34.0244453,2.67968016 24.9785951,9.71266397 19.1715547,17.8906397 C17.0566518,20.8673927 17.2882105,23.600915 18.0163968,26.9033563 C18.3292834,28.3130405 18.6455587,28.9885142 18.2645223,30.4256842 C18.0544251,31.2186316 18.0894413,31.9588664 17.8285142,32.426502 C17.4674332,33.0729838 17.0077045,33.7797085 16.8537085,34.9405142 C16.4689069,37.8393279 17.494919,38.7625506 18.1361296,39.7377328 C19.0495628,38.8307004 20.8338826,36.6958421 24.0512308,35.4205749 C27.2685789,34.1453077 29.3853644,32.22883 33.417498,30.1715344 C38.9267126,27.3615789 45.384,31.6245182 57.6276194,27.6127166 C61.3950607,26.3781134 70.0534737,13.5520202 72.1088866,13.0595344 C66.3846802,6.72951012 56.646413,4.41505263 51.6010688,4.02836842 Z" id="Path" fill="url(#linearGradient-4)"></path>
                <path d="M39.9888704,0.012048583 C39.9888704,0.012048583 36.8505911,1.52791093 35.48383,4.26708097 C38.6394291,2.6762915 40.4711903,1.80728745 41.3371822,1.70374494 C41.3371822,1.70374494 40.5077126,2.10548988 39.4790648,4.2904251 C41.2976478,3.70795142 41.9237976,3.34084615 42.4230607,3.33519838 C42.4230607,3.33519838 42.2781012,3.56487449 42.1455668,5.74566802 C39.3529312,4.84051822 33.9777571,5.89514575 31.1184777,7.6858664 C30.1485668,2.51438866 39.9888704,0.012048583 39.9888704,0.012048583 Z" id="Path" fill="#3F6499"></path>
                <path d="M52.4787328,3.24935223 C47.0911336,2.55128745 42.5875992,2.6887166 38.7587854,3.42631579 C39.9628907,2.27228745 41.3560081,1.70374494 41.3560081,1.70374494 C39.5506032,1.86338866 37.2967652,3.04189069 35.3629676,4.28967206 C34.3885385,4.60067611 33.4600445,4.95159109 32.580498,5.34354656 C33.118919,4.63380972 33.7454453,3.87550202 34.357664,3.29340486 C36.6314575,1.13106073 40.0076964,0.012048583 40.0076964,0.012048583 C37.1258259,-0.199554656 27.4816883,2.2692753 21.678413,14.0234211 C20.7273279,15.1819676 19.8398745,16.3710121 18.9942146,17.5619393 C16.8111619,20.635834 17.0506275,23.4574615 17.803664,26.867587 C18.1244575,28.323583 18.1835709,30.64783 17.866919,32.1497611 C17.803664,32.4505992 16.9772065,33.2277328 16.7652267,35.3230567 C16.5385628,37.5463968 17.3318866,38.6379231 18.113915,39.5411903 C20.8926194,35.4778057 23.6340486,34.6724332 23.6340486,34.6724332 C27.5234818,33.0790081 29.1425101,31.3771457 33.3060486,29.2532065 C38.9944858,26.3506275 58.8863198,35.8234494 71.527166,31.680996 C75.4173522,30.4068583 70.029753,13.8494696 72.1533158,13.34117 C66.2423563,6.80481377 57.6596235,3.92068421 52.4787328,3.24935223 Z" id="Path" fill="url(#linearGradient-5)"></path>
                <path d="M91.9367126,38.8898138 C88.8206478,22.6102955 73.8276923,7.79995142 61.7712024,6.9791417 C56.420502,6.61467206 58.0636275,9.35836032 54.7156275,10.4031984 C40.2874494,14.9059798 40.0668097,17.53483 40.0668097,17.53483 C70.659668,18.972753 71.1235385,49.1864575 62.930502,56.8305304 C65.2359231,56.2928623 67.7356275,53.474247 70.0312591,49.0494049 C69.7556478,50.9060162 69.5191943,53.1835749 69.1750567,55.7246964 C68.1253239,63.4790891 69.4849312,79.6765263 47.2029595,90.5168623 C47.2029595,90.5168623 59.3916073,89.5205951 65.4358543,82.7165344 C62.9779433,88.3688259 56.2333725,91.4220121 56.2333725,91.4220121 C61.1966356,90.696085 74.2347085,86.8488219 82.5399474,76.4621903 C91.9401012,64.7054089 94.767,53.6756842 91.9367126,38.8898138 Z" id="Path" fill="url(#linearGradient-6)"></path>
                <path d="M62.1228704,68.6095263 C62.1228704,68.6095263 72.0614453,65.8308219 75.2644858,60.4643077 C74.875919,66.721664 69.1999069,73.138664 69.1999069,73.138664 C69.1999069,73.138664 77.4976154,71.4593927 81.0361336,65.6203482 C80.5752753,70.8893441 74.1868907,78.0104332 74.1868907,78.0104332 C80.7179757,76.838332 97.1281457,66.4720324 91.9370891,38.8898138 C88.8714777,22.6008826 73.8280688,7.79995142 61.7715789,6.9791417 C56.4208785,6.61467206 58.064004,9.35836032 54.716004,10.4031984 C40.2878259,14.9059798 40.0671862,17.53483 40.0671862,17.53483 C70.6600445,18.972753 78.7898259,34.9841903 62.9308785,56.4031822 C65.2362996,55.8651377 66.1606518,54.5981538 67.8926356,52.524668 C67.8918826,52.524668 68.6772996,60.7252348 62.1228704,68.6095263 Z" id="Path" fill="url(#linearGradient-7)"></path>
                <path d="M22.8203927,32.2175344 C22.8203927,32.2175344 21.0436032,33.4604211 19.7570405,33.1437692 C18.2340243,32.7698866 17.9761093,31.2939352 17.9761093,31.2939352 C17.9425992,31.5962794 17.9038178,31.888081 17.8477166,32.1497611 C17.7844615,32.4505992 16.958004,33.2277328 16.7460243,35.3230567 C16.5193603,37.5463968 17.3541012,38.8340891 18.1361296,39.7373563 C20.9152105,35.6739717 23.6152227,34.6724332 23.6152227,34.6724332 C22.557583,34.3026923 22.8203927,32.2175344 22.8203927,32.2175344 Z" id="Path" fill="url(#linearGradient-8)"></path>
                <g opacity="0.6" transform="translate(60.995951, 6.777328)" fill="url(#linearGradient-9)" id="Path">
                    <g opacity="0.2">
                        <path d="M0.569672065,0.163408907 C0.986101215,0.0553481781 2.68608097,0.240218623 3.80170445,0.740611336 C4.91770445,1.24100405 6.84133603,2.12582186 5.30250607,2.51062348 C3.7632996,2.8954251 2.87848178,2.27981781 2.10887854,1.62542915 C1.3392753,0.971040486 -0.4691417,0.432619433 0.569672065,0.163408907 Z"></path>
                    </g>
                </g>
                <path d="M22.9868138,31.9743036 C22.9868138,31.9743036 32.7341174,15.9112834 41.5461498,11.5764291 C42.3643239,11.1648947 29.3450769,15.0370081 24.1058259,20.8199514 C20.9916437,24.2571862 22.6407935,30.9866964 22.9868138,31.9743036 Z" id="Path" fill="url(#linearGradient-10)"></path>
                <path d="M22.9868138,31.9743036 C22.9958502,31.9686559 23.0056397,31.9630081 23.0150526,31.9573603 C25.5354656,30.400081 29.8548826,29.5032146 31.247247,26.6804575 C36.6077368,15.810753 41.5465263,11.5764291 41.5465263,11.5764291 C32.7341174,15.9112834 22.9868138,31.9743036 22.9868138,31.9743036 Z" id="Path" fill="#F2F2F2" opacity="0.1"></path>
                <path d="M23.9134251,29.036332 C23.9134251,29.036332 22.1565911,26.3408381 24.686417,23.8829271 C26.0215506,22.5877045 28.044583,23.3072308 28.2784008,23.5402955 C29.273915,24.5275263 28.6481417,26.6111781 27.7520283,27.7904332 C27.2456113,28.4546113 25.771919,29.4885304 23.9134251,29.036332 Z" id="Path" fill="#2F4282"></path>
                <path d="M24.9206113,28.8691579 C24.9206113,28.8691579 23.7067166,27.0057692 25.4560202,25.3076721 C26.3769838,24.4130648 27.775749,24.9100688 27.9380283,25.0704656 C28.6255506,25.7527166 28.1925547,27.1928988 27.5735587,28.0073077 C27.2237733,28.4677895 26.204915,29.181668 24.9206113,28.8691579 Z" id="Path" fill="url(#linearGradient-11)"></path>
                <path d="M27.3438826,26.8807652 C27.3167733,27.6255182 26.6864818,28.2068623 25.9364575,28.1812591 C25.1849271,28.1552794 24.5968057,27.5313887 24.6235385,26.7866356 C24.6502713,26.0422591 25.2801862,25.460915 26.0320931,25.4865182 C26.7821174,25.512498 27.3698623,26.1367652 27.3438826,26.8807652 Z" id="Path" fill="#000000"></path>
            </g>
            <circle id="Oval" fill="#FFFFFF" cx="25.1231781" cy="26.464336" r="1"></circle>
            <path d="M86.0362955,24.4774494 C79.3640162,14.3204939 74.0777004,11.7394615 74.0777004,11.7394615 C74.0777004,11.7394615 74.3205547,19.1380445 78.0251174,22.7066842 C78.4483239,23.1144534 73.5919919,19.5318826 73.5919919,19.5318826 C73.5919919,19.5318826 72.5535547,22.9491619 74.9331498,26.877753 C74.2418623,25.9594251 73.7843927,25.6115223 73.7843927,25.6115223 C73.7843927,25.6115223 69.3008138,27.6789838 67.9773522,30.5472996 C67.2939717,29.2573482 66.7815304,28.4975344 66.7815304,28.4975344 C66.7815304,28.4975344 63.6805263,34.6863644 64.0702227,41.8620486 C64.7042794,53.5295951 61.8852874,57.8279271 61.8852874,57.8279271 C61.8852874,57.8279271 69.4371134,54.9306194 73.0588421,45.6031336 C74.5551255,49.569 73.0132834,53.743081 73.0132834,53.743081 C73.0132834,53.743081 79.1151377,49.1838219 80.4273036,40.8736883 C81.8817935,43.2193968 81.4540688,47.9010243 81.4540688,47.9010243 C81.4540688,47.9010243 85.3487733,42.4784089 85.4436559,36.5730972 C87.2486842,37.8317976 87.4147287,42.7476194 87.4147287,42.7476194 C87.4147287,42.7476194 93.1890121,35.3656032 86.0362955,24.4774494 Z" id="Path" fill="url(#linearGradient-12)"></path>
            <path d="M79.5515223,17.3793279 C77.8078664,14.1299757 74.7309595,12.0591255 72.0264291,10.3828664 C65.2833644,6.20163158 60.9466275,5.61426316 60.9466275,5.61426316 C60.9466275,5.61426316 54.7235344,6.77168016 55.7924696,8.50291093 C55.8474413,8.59176923 55.975834,8.70434818 56.1569393,8.83311741 C50.6981781,6.31872874 47.6016923,12.100166 47.6016923,12.100166 C44.4826154,11.9107773 40.6846761,13.4462186 39.577336,17.5593036 C39.462498,17.9862753 40.9745951,17.7460567 41.7524818,17.9151134 C46.3004453,18.9038502 50.581834,21.0477449 52.5491417,22.1072672 C57.1253441,24.5727085 59.840417,28.6778866 61.4078623,31.7570526 C63.3043846,35.4823239 64.0788826,42.0375061 64.0788826,42.0375061 C64.0788826,42.0375061 69.0688785,35.1829919 67.8764453,31.6636761 C69.8527895,32.8911255 70.2428623,37.2704089 70.2428623,37.2704089 C70.2428623,37.2704089 73.5694008,32.0601498 72.5859352,27.5219757 C75.1519069,29.0856559 75.2373765,32.2664818 75.2373765,32.2664818 C75.2373765,32.2664818 77.8500364,28.6402348 76.6692753,22.692753 C79.2514372,24.7459069 79.7917409,27.4056316 79.7917409,27.4056316 C79.7917409,27.4056316 81.902502,21.7604939 79.5515223,17.3793279 Z" id="Path" fill="url(#linearGradient-13)"></path>
        </g>
    </g>
</svg>